PathFileType	4	(X/Y/Z)	C:\Users\adpatrick\OneDrive - nih.no\Desktop\WebApp1080sync\WebAppv0.1\fp22_m505_left 2_Sports2D\fp22_m505_left 2_Sports2D_m_person00.trc
DataRate	CameraRate	NumFrames	NumMarkers	Units	OrigDataRate	OrigDataStartFrame	OrigNumFrames
60	60	11	22	m	60	0	869
Frame#	Time	Hip			RHip			RKnee			RAnkle			RBigToe			RSmallToe			RHeel			LHip			LKnee			LAnkle			LBigToe			LSmallToe			LHeel			Neck			Head			Nose			RShoulder			RElbow			RWrist			LShoulder			LElbow			LWrist		
		X1	Y1	Z1	X2	Y2	Z2	X3	Y3	Z3	X4	Y4	Z4	X5	Y5	Z5	X6	Y6	Z6	X7	Y7	Z7	X8	Y8	Z8	X9	Y9	Z9	X10	Y10	Z10	X11	Y11	Z11	X12	Y12	Z12	X13	Y13	Z13	X14	Y14	Z14	X15	Y15	Z15	X16	Y16	Z16	X17	Y17	Z17	X18	Y18	Z18	X19	Y19	Z19	X20	Y20	Z20	X21	Y21	Z21	X22	Y22	Z22
0	0.0	0.7292203734692868	0.8325764158955035	0.0301	0.6049552221184062	0.8361899800543475	0.0301	0.5054918206898378	0.34379296984797475	0.0179	0.38644187411237285	-0.1490640850525001	0.023	0.5069653869967887	-0.2703516284422216	0.2179	0.42235596301388006	-0.2854423159609422	0.1804	0.3362089762907995	-0.23520799333965522	-0.0119	0.8206639765004643	0.834743806684082	-0.0301	0.9943264235028569	0.4010903801130059	-0.0179	1.0191344267154612	-0.09489961825131263	0.023	1.1976492794779994	-0.18212675676899417	0.2179	1.210559388947981	-0.17528579484341925	0.1804	0.9755736978741625	-0.1873961200694652	-0.0119	0.884537802209963	1.4504333962265012	-0.0008	1.0738258206037843	1.7358683361720402	0.0655	1.0657436769393827	1.5266134250472339	0.1076	0.6378738905157594	1.3792716746997145	-0.01275	0.5351583685602028	1.024007354123545	0.0119	0.6467580660523237	0.726100241874933	0.0002	1.0115697476222318	1.3293137792729535	0.01275	1.0387396892866132	1.0097824885246425	-0.0119	1.123280588257405	0.7504166041486835	-0.0002
1	0.016666666666666666	0.7303449813027287	0.835516430178523	0.0301	0.6048416725310612	0.8392896748181454	0.0301	0.5087265985607617	0.34245498995685586	0.0179	0.38655015899509165	-0.15137998760815202	0.023	0.5090963862204805	-0.26898052365083597	0.2179	0.4252036574581283	-0.2852135472103748	0.1804	0.3378994849111914	-0.23416024851069805	-0.0119	0.8215991603398985	0.8374663287339424	-0.0301	0.9936080934238124	0.40143581610538026	-0.0179	1.0189559115358033	-0.09747911566995784	0.023	1.1940878904327057	-0.19336958306648597	0.2179	1.2070007232161708	-0.18009278272676088	0.1804	0.9781774294963048	-0.18486520211089133	-0.0119	0.8827013361932764	1.44957519414524	-0.0008	1.0749721200728972	1.729909983118139	0.0655	1.0652696115582974	1.522649640964512	0.1076	0.637243452062671	1.3779199247069178	-0.01275	0.5345506804885666	1.0230963339806118	0.0119	0.6433193132893799	0.7261540465487224	0.0002	1.0106244750907905	1.3297602961077977	0.01275	1.0386995673644408	1.0089963532291077	-0.0119	1.1277786898966304	0.7504813424263023	-0.0002
2	0.03333333333333333	0.7312206847984906	0.8378200271238476	0.0301	0.6048195176820337	0.8416714427954702	0.0301	0.5111880033889302	0.34150124461949116	0.0179	0.3867003853968524	-0.15301242891704586	0.023	0.510849815902156	-0.2678639832408045	0.2179	0.427146741854866	-0.28493832461957097	0.1804	0.3390962630360936	-0.23328157350197123	-0.0119	0.8223205077001066	0.8397316690208647	-0.0301	0.993043711978453	0.40169385045816125	-0.0179	1.0188900389698157	-0.09915189878376753	0.023	1.1914223727256632	-0.20183118534973132	0.2179	1.2044497611028453	-0.18362312303649506	0.1804	0.9799771594825668	-0.18303446702358814	-0.0119	0.8813704219178236	1.449075166479079	-0.0008	1.0762134869615119	1.7252046980817104	0.0655	1.0650165844266213	1.5193599952326604	0.1076	0.6366827751589771	1.376823584804075	-0.01275	0.5340665304262254	1.0225320190673537	0.0119	0.6406873257151627	0.7262229134950664	0.0002	1.0099745959440634	1.3301673180408529	0.01275	1.0386459327605353	1.0083879392632793	-0.0119	1.1312164202635189	0.7505097832056518	-0.0002
3	0.05	0.7317163736086552	0.8391128630257839	0.0301	0.604856744053413	0.8431146827107725	0.0301	0.5126463299558182	0.34111020507672113	0.0179	0.3869239785839823	-0.15377751553408167	0.023	0.5120239634716657	-0.2670660308974613	0.2179	0.4279531222491123	-0.2846821119738269	0.1804	0.339741513908757	-0.23270421517314177	-0.0119	0.8227568396088003	0.8413570739369242	-0.0301	0.9926648039767122	0.4018921064314329	-0.0179	1.0191099814189983	-0.09969001168471726	0.023	1.1899139997708124	-0.20649290801622272	0.2179	1.2031270893651764	-0.18542069241216952	0.1804	0.9807815772765852	-0.18209793359448975	-0.0119	0.8807385663356205	1.448954444015681	-0.0008	1.0774495360575143	1.7221156056425124	0.0655	1.065000917533295	1.5167355484707192	0.1076	0.6362402794088179	1.3761376595171764	-0.01275	0.5336336299357565	1.0223906711520305	0.0119	0.6391224507613382	0.7264167172356243	0.0002	1.0098708677856534	1.3305328019517584	0.01275	1.03858713690232	1.0080575809388395	-0.0119	1.1332829523886032	0.7505540927666878	-0.0002
4	0.06666666666666667	0.7318788589470474	0.8395211827380559	0.0301	0.6048692161131956	0.8439631007179045	0.0301	0.5133800320112213	0.341238178553073	0.0179	0.38720007156363206	-0.1539339973849348	0.023	0.5126458960731376	-0.26652091934890987	0.2179	0.4280804575123323	-0.28457313081035446	0.1804	0.3401028006347926	-0.2324783768599647	-0.0119	0.8230413979119199	0.842599708006021	-0.0301	0.9924183070781928	0.40219774329006497	-0.0179	1.0196787562900989	-0.09942641405149433	0.023	1.18931814248723	-0.20824255421834084	0.2179	1.2025871760174058	-0.18594086541042826	0.1804	0.9809460769600166	-0.18161324145494448	-0.0119	0.8805787663598247	1.4489426458079864	-0.0008	1.0785119400073333	1.7201717250272346	0.0655	1.0650659264509432	1.5143998179544171	0.1076	0.6359222316790151	1.375878722763235	-0.01275	0.5330935645724612	1.0224844843231782	0.0119	0.6384006763016054	0.7268554186006206	0.0002	1.010360360795305	1.3308622370815213	0.01275	1.0385839830256363	1.0080528702654803	-0.0119	1.1344117886429181	0.7506401344756888	-0.0002
5	0.08333333333333333	0.7318098854865315	0.8395264294379067	0.0301	0.6048097275665847	0.8445942383154027	0.0301	0.5136977252177143	0.3417592396904084	0.0179	0.3874554935921475	-0.15376829924634786	0.023	0.5128205843078232	-0.2662155906666462	0.2179	0.4280212783682645	-0.28463240934427547	0.1804	0.3404067457937011	-0.23252832504230012	-0.0119	0.8233769628827258	0.843792591286811	-0.0301	0.9922673950829072	0.402729713863458	-0.0179	1.0204020554769124	-0.09869279451348585	0.023	1.1894277019268347	-0.20845369044603898	0.2179	1.2024830671666158	-0.18584885024789902	0.1804	0.9808535255644181	-0.18100987089115753	-0.0119	0.8805691340657806	1.448798313662977	-0.0008	1.0794198729726545	1.7188768576602227	0.0655	1.0651248778280742	1.5123251557519384	0.1076	0.635710834549735	1.3759475276306607	-0.01275	0.5324210931127827	1.022615704560105	0.0119	0.6381642339908067	0.7275060145214877	0.0002	1.0112404894849807	1.331147103461253	0.01275	1.0387217573173662	1.0083827640947847	-0.0119	1.1350416957032081	0.7506465076571602	-0.0002
6	0.1	0.7315244666365787	0.8394709432343848	0.0301	0.604643927881049	0.8449258898765839	0.0301	0.5137124673746049	0.3425380350382792	0.0179	0.38765536474720835	-0.15339169529302943	0.023	0.5125893423745118	-0.26619415658796414	0.2179	0.42780843956615355	-0.2847279832866758	0.1804	0.3407446853998095	-0.2326804757288083	-0.0119	0.8238654666062237	0.8448412033419016	-0.0301	0.9922459438298978	0.403381886859181	-0.0179	1.02096760953712	-0.09769267317523127	0.023	1.1902029553852524	-0.20782876490045857	0.2179	1.20286787489882	-0.1853857547729326	0.1804	0.980615729311877	-0.1801404919014167	-0.0119	0.8806326328933425	1.4484907203194455	-0.0008	1.0803154629297718	1.718130070269077	0.0655	1.0653287027184268	1.51089850211709	0.1076	0.6355908120219066	1.376158220381541	-0.01275	0.531753565947204	1.0226961139592565	0.0119	0.6380951244613519	0.7281657969407588	0.0002	1.012255187569297	1.3313439483652312	0.01275	1.0390650963256967	1.0089537909930837	-0.0119	1.1351217060919943	0.7503711337918556	-0.0002
7	0.11666666666666667	0.7310358187712425	0.839361963605838	0.0301	0.6043486147437088	0.8446800756727046	0.0301	0.5135744280385398	0.34334289227211656	0.0179	0.38786236853530914	-0.15288773646443252	0.023	0.5120748017699366	-0.2664090391264218	0.2179	0.4273496764798527	-0.2846882570630068	0.1804	0.34119091126292456	-0.23273217242042124	-0.0119	0.824494262277672	0.8454011426055267	-0.0301	0.9924242370534935	0.40391984576756207	-0.0179	1.0211758112855913	-0.09672960877927479	0.023	1.1914209692006605	-0.20674779544316801	0.2179	1.2037042461226264	-0.18456833710610834	0.1804	0.9802061397361591	-0.17923701549785537	-0.0119	0.8808142275180334	1.448118579772109	-0.0008	1.081193560290762	1.7178657678542253	0.0655	1.0658490703165497	1.5103726523741627	0.1076	0.63550970553975	1.3763114380463757	-0.01275	0.5312590429792137	1.0226601356987841	0.0119	0.63792179102571	0.728636614296658	0.0002	1.0132494754218324	1.33135209039706	0.01275	1.0396165232661558	1.0095708579887035	-0.0119	1.1345370671551043	0.7497463441109894	-0.0002
8	0.13333333333333333	0.7304934090347595	0.8391402177594314	0.0301	0.6039806661184194	0.8439387888802551	0.0301	0.513566693367597	0.34386716652196	0.0179	0.38814820403509054	-0.15242938533440878	0.023	0.5115825099127058	-0.2666976302949481	0.2179	0.42691223231025505	-0.2844362411017132	0.1804	0.3417830087886541	-0.23254881359145607	-0.0119	0.825170975348907	0.8453983680622931	-0.0301	0.9928046599498069	0.4042039819733065	-0.0179	1.0210056446483495	-0.09614180175707855	0.023	1.1925493672209826	-0.2058895558665816	0.2179	1.2045480128029258	-0.18364969117862032	0.1804	0.9796609328428805	-0.17858564804799912	-0.0119	0.8810519165338759	1.4477741461338691	-0.0008	1.0819064981479423	1.7177954847129773	0.0655	1.0665600558739383	1.5105302628031303	0.1076	0.6353702087121669	1.3763259042537719	-0.01275	0.5310691713015776	1.0224883779209253	0.0119	0.6374426175562155	0.7288810567834852	0.0002	1.0141080396626472	1.331103048280562	0.01275	1.0402563398465023	1.0100228244580565	-0.0119	1.1336284090680504	0.748937546417667	-0.0002
9	0.15	0.7301172646085518	0.8388574680199661	0.0301	0.6037040593209393	0.8430671025284685	0.0301	0.5137991660703122	0.34395089671507295	0.0179	0.38848751076350335	-0.15216984281070756	0.023	0.511356049953521	-0.2669401481921	0.2179	0.4268868877847337	-0.28406642187747877	0.1804	0.34238517246790867	-0.23219255324355864	-0.0119	0.8257461138801647	0.8450336587936882	-0.0301	0.9932716058873879	0.4042400896509548	-0.0179	1.0205832448736587	-0.09599365449854486	0.023	1.1932155403794087	-0.20568662750268601	0.2179	1.205031090061818	-0.18296617223191217	0.1804	0.9790980391405953	-0.17839301355688517	-0.0119	0.8813076938777855	1.4475280922372071	-0.0008	1.0823590474786424	1.7177568511223835	0.0655	1.0671363113879138	1.5110077379482934	0.1076	0.635154413748317	1.3762547260465405	-0.01275	0.5313017621374948	1.0222691331484177	0.0119	0.636592387504248	0.7289592747771784	0.0002	1.0147018069779221	1.3306700618824343	0.01275	1.0407907050117762	1.010169946001803	-0.0119	1.132823399858345	0.7481930225495651	-0.0002
10	0.16666666666666666	0.7300408924772059	0.8385518658577578	0.0301	0.603684491303064	0.8423223003325667	0.0301	0.5140539926104356	0.343703485380034	0.0179	0.38875672648065834	-0.1521566947132323	0.023	0.5114155752749007	-0.2671355765673463	0.2179	0.42732192281154824	-0.2838250648548942	0.1804	0.34276515265348023	-0.23192759810352495	-0.0119	0.8260993669514873	0.8444835829388018	-0.0301	0.9937034143023775	0.40407649096085807	-0.0179	1.0201288608719898	-0.0960856436480399	0.023	1.1935098239612976	-0.20576161139458415	0.2179	1.2052394524083858	-0.18257833855366076	0.1804	0.9786575276304699	-0.1787388390609204	-0.0119	0.8817719886370022	1.4474400914940833	-0.0008	1.0825501706085767	1.7179274043913688	0.0655	1.0674794471841687	1.511766172110691	0.1076	0.6350585818211134	1.3761857984588997	-0.01275	0.5320062513589824	1.022098692309766	0.0119	0.6354181897970339	0.7289161342950174	0.0002	1.0149885510567556	1.3302666158848997	0.01275	1.0411236492136284	1.0099978280102033	-0.0119	1.1320861392758914	0.7475712954500551	-0.0002
